Coordinates
version=1
nRows=19
nColumns=24
inDegrees=yes

Units are S.I. units (second, meters, Newtons, ...)
Angles are in degrees.

endheader
time	pelvis_tilt	pelvis_list	pelvis_rotation	pelvis_tx	pelvis_ty	pelvis_tz	hip_flexion_r	hip_adduction_r	hip_rotation_r	knee_angle_r	ankle_angle_r	subtalar_angle_r	mtp_angle_r	hip_flexion_l	hip_adduction_l	hip_rotation_l	knee_angle_l	ankle_angle_l	subtalar_angle_l	mtp_angle_l	lumbar_extension	lumbar_bending	lumbar_rotation
      1.70500000	      8.09028448	     12.27823250	     -4.98107887	     -0.31931974	      0.99340604	     -0.01165749	     20.03937831	    -13.47292570	     -5.31651895	    -23.79524412	      3.22167146	     -0.70734983	      5.53528520	     -6.87992135	     16.13427747	     -9.74304553	    -12.26279867	     11.72881828	      3.87460693	     16.76381217	    -25.11201989	    -13.31290586	     -2.49661041
      1.71000000	      8.17072589	     12.38008339	     -4.87602736	     -0.31417481	      0.99293569	     -0.01132087	     19.67178150	    -13.53488929	     -5.75034162	    -21.85309183	      2.74698619	      0.07319991	      5.45187992	     -7.39131228	     16.22558188	     -9.60100635	    -12.14010415	     11.96768263	      4.04207231	     16.49876841	    -25.20283264	    -13.36502182	     -2.70333580
      1.71500000	      8.15742936	     12.49988960	     -4.75984307	     -0.30906809	      0.99226511	     -0.01095596	     19.41987560	    -13.59425250	     -6.12598606	    -19.95617741	      2.30589173	      0.90953569	      5.41030066	     -7.77254769	     16.31990106	     -9.45820649	    -12.07210997	     12.26726584	      4.22665992	     16.23915990	    -25.19331460	    -13.43586542	     -2.90318413
      1.72000000	      8.14844837	     12.63766813	     -4.64478806	     -0.30396428	      0.99154920	     -0.01058104	     19.16792692	    -13.67047640	     -6.48514973	    -18.09763348	      1.89989600	      1.77801654	      5.40001517	     -8.15671810	     16.43038897	     -9.30989877	    -12.00637518	     12.56373307	      4.40973865	     16.01025123	    -25.19283130	    -13.52328324	     -3.12112681
      1.72500000	      8.07853689	     12.78963610	     -4.52243042	     -0.29888600	      0.99068949	     -0.01017578	     18.99942558	    -13.74923274	     -6.80272422	    -16.30656401	      1.54383929	      2.67707651	      5.40153959	     -8.45201937	     16.54399979	     -9.16623810	    -11.98594697	     12.89553897	      4.59828512	     15.88213201	    -25.12801605	    -13.62708887	     -3.33213318
      1.73000000	      8.05292393	     12.93711125	     -4.39995651	     -0.29376522	      0.98987967	     -0.00977562	     18.77296173	    -13.83004748	     -7.13203544	    -14.55754167	      1.21455294	      3.56766196	      5.40839060	     -8.81499165	     16.65727927	     -8.99430581	    -11.93302779	     13.18219637	      4.74859955	     15.72044637	    -25.11215294	    -13.72168828	     -3.55298673
      1.73500000	      8.02971898	     13.09783038	     -4.28933418	     -0.28861369	      0.98903861	     -0.00933919	     18.56300585	    -13.92053654	     -7.44436775	    -12.89489828	      0.92199358	      4.42574391	      5.41497313	     -9.19070351	     16.78520998	     -8.82335052	    -11.86034684	     13.47462823	      4.88029061	     15.51873460	    -25.09355463	    -13.83507890	     -3.78160011
      1.74000000	      7.97971366	     13.25770520	     -4.16938767	     -0.28347367	      0.98813824	     -0.00890069	     18.40068817	    -14.00878516	     -7.73430676	    -11.33575636	      0.68650536	      5.26942807	      5.41173600	     -9.52742209	     16.90573019	     -8.63589447	    -11.81115218	     13.76090353	      5.00738076	     15.30822205	    -25.04918130	    -13.94432949	     -3.99772405
      1.74500000	      7.95375500	     13.41562183	     -4.05528165	     -0.27833818	      0.98724170	     -0.00845025	     18.23644746	    -14.09937280	     -8.01852201	     -9.89364382	      0.50972227	      6.08159225	      5.39055259	     -9.88964350	     17.02460350	     -8.43641010	    -11.76334190	     14.04604615	      5.11799166	     15.07370904	    -25.03482813	    -14.05097511	     -4.20943657
      1.75000000	      7.85285907	     13.56472017	     -3.93641355	     -0.27317264	      0.98623610	     -0.00799742	     18.18626269	    -14.17454232	     -8.28767883	     -8.59584586	      0.38089047	      6.84963311	      5.36516894	    -10.16653066	     17.12659227	     -8.26402590	    -11.72775216	     14.30333958	      5.25304112	     14.94246223	    -24.93014250	    -14.14783276	     -4.38361886
      1.75500000	      7.81229282	     13.71376049	     -3.81377332	     -0.26801409	      0.98530937	     -0.00755318	     18.09644989	    -14.26538368	     -8.59071476	     -7.43934468	      0.31100567	      7.58012588	      5.32191611	    -10.51410718	     17.23186283	     -8.03646531	    -11.68694125	     14.56645761	      5.32676000	     14.77820795	    -24.89925571	    -14.23854089	     -4.59138632
      1.76000000	      7.78785089	     13.84644133	     -3.69287551	     -0.26284672	      0.98441168	     -0.00710454	     18.01821580	    -14.34457770	     -8.90020837	     -6.43573280	      0.29475316	      8.23553493	      5.25614455	    -10.87978906	     17.31927097	     -7.79630321	    -11.64869108	     14.82991564	      5.38955248	     14.58885733	    -24.88639391	    -14.30960338	     -4.78251049
      1.76500000	      7.76438833	     13.96495160	     -3.57429777	     -0.25767548	      0.98351767	     -0.00664709	     17.97714368	    -14.41349870	     -9.22164426	     -5.60090834	      0.32036406	      8.80573707	      5.17178086	    -11.24531568	     17.39013986	     -7.55221542	    -11.61487393	     15.08975397	      5.43897054	     14.39081679	    -24.87465448	    -14.36563042	     -4.95659630
      1.77000000	      7.76971668	     14.06120110	     -3.45716931	     -0.25246945	      0.98268531	     -0.00619065	     17.93215914	    -14.46835714	     -9.57041109	     -4.92974120	      0.39586001	      9.30408237	      5.06818873	    -11.65102280	     17.43840202	     -7.29078725	    -11.57073500	     15.34157395	      5.47706250	     14.16947250	    -24.89121550	    -14.39475290	     -5.11973109
      1.77500000	      7.83350618	     14.12405380	     -3.37404993	     -0.24722367	      0.98195024	     -0.00571420	     17.85532740	    -14.49267655	     -9.91656006	     -4.41542796	      0.51078836	      9.68236225	      4.80067748	    -12.13288631	     17.46296043	     -7.01847653	    -11.49869243	     15.60037118	      5.46012822	     13.67049069	    -24.96023369	    -14.39412725	     -5.20976392
      1.78000000	      7.78063780	     14.19534121	     -3.23397694	     -0.24200115	      0.98106501	     -0.00527339	     17.94625513	    -14.53370040	    -10.27734887	     -4.09811326	      0.65021288	      9.95274651	      4.73583559	    -12.46353357	     17.47034127	     -6.77352294	    -11.48992193	     15.85411237	      5.55701822	     13.54764334	    -24.91431481	    -14.38511984	     -5.38132821
      1.78500000	      7.84287696	     14.23377104	     -3.11566096	     -0.23669848	      0.98037725	     -0.00483922	     17.91487263	    -14.55968822	    -10.69409547	     -3.90388241	      0.81464971	     10.18844613	      4.63668397	    -12.94588847	     17.45682030	     -6.45623037	    -11.43220700	     16.05434391	      5.51950501	     13.34456606	    -24.98362995	    -14.34254795	     -5.48062937
      1.79000000	      7.90032122	     14.25430393	     -2.99739674	     -0.23137858	      0.97969104	     -0.00441874	     17.92033000	    -14.57508436	    -11.09838484	     -3.87290966	      0.99873091	     10.26910864	      4.54447967	    -13.42153344	     17.42181509	     -6.15410146	    -11.38052915	     16.26361704	      5.51568207	     13.15976122	    -25.04715712	    -14.27322762	     -5.59355020
      1.79500000	      7.97124827	     14.25835699	     -2.88988021	     -0.22598530	      0.97903783	     -0.00399319	     17.92024293	    -14.58055511	    -11.49304901	     -3.96156704	      1.20352776	     10.25382858	      4.46224892	    -13.91718731	     17.37129000	     -5.85636131	    -11.32348094	     16.45747561	      5.48101984	     12.98244697	    -25.11305393	    -14.18732639	     -5.66964948
